<svg width="800" height="500" viewBox="0 0 800 500" fill="none" xmlns="http://www.w3.org/2000/svg">
  <defs>
    <linearGradient id="bg" x1="0" y1="0" x2="800" y2="500" gradientUnits="userSpaceOnUse">
      <stop stop-color="#4F46E5"/>
      <stop offset="1" stop-color="#0EA5E9"/>
    </linearGradient>
    <linearGradient id="card" x1="0" y1="0" x2="1" y2="1">
      <stop stop-color="#FFFFFF" stop-opacity="0.95"/>
      <stop offset="1" stop-color="#FFFFFF" stop-opacity="0.75"/>
    </linearGradient>
  </defs>

  <rect x="0" y="0" width="800" height="500" rx="28" fill="url(#bg)"/>

  <circle cx="130" cy="95" r="54" fill="#FFFFFF" fill-opacity="0.18"/>
  <circle cx="690" cy="110" r="80" fill="#FFFFFF" fill-opacity="0.12"/>
  <circle cx="640" cy="410" r="110" fill="#FFFFFF" fill-opacity="0.10"/>

  <rect x="110" y="140" width="580" height="250" rx="28" fill="url(#card)"/>

  <path d="M270 300c20-45 55-70 110-70 70 0 105 40 150 110" stroke="#111827" stroke-width="16" stroke-linecap="round" stroke-linejoin="round"/>
  <path d="M265 305l-60 30" stroke="#111827" stroke-width="16" stroke-linecap="round"/>
  <path d="M535 345l60-30" stroke="#111827" stroke-width="16" stroke-linecap="round"/>

  <circle cx="330" cy="250" r="22" fill="#111827"/>
  <circle cx="475" cy="270" r="22" fill="#111827"/>

  <rect x="155" y="185" width="240" height="18" rx="9" fill="#111827" fill-opacity="0.14"/>
  <rect x="155" y="215" width="320" height="18" rx="9" fill="#111827" fill-opacity="0.12"/>

  <rect x="155" y="350" width="210" height="44" rx="22" fill="#111827" fill-opacity="0.10"/>
  <rect x="390" y="350" width="180" height="44" rx="22" fill="#111827" fill-opacity="0.10"/>

  <text x="155" y="120" font-family="Arial, sans-serif" font-size="28" font-weight="700" fill="#FFFFFF">Habit Challenge</text>
  <text x="155" y="162" font-family="Arial, sans-serif" font-size="18" fill="#111827" fill-opacity="0.75">Daily streaks with friends</text>
</svg>
